<?xml version="1.0" standalone="no"?>
<!DOCTYPE svg PUBLIC "-//W3C//DTD SVG 20010904//EN"
 "http://www.w3.org/TR/2001/REC-SVG-20010904/DTD/svg10.dtd">
<svg version="1.0" xmlns="http://www.w3.org/2000/svg"
 width="500.000000pt" height="500.000000pt" viewBox="0 0 500.000000 500.000000"
 preserveAspectRatio="xMidYMid meet">

<g transform="translate(0.000000,500.000000) scale(0.100000,-0.100000)"
fill="#000000" stroke="none">
<path d="M1020 3688 c0 -37 1 -38 37 -38 20 0 65 -5 100 -11 52 -9 72 -18 103
-48 56 -54 60 -87 60 -501 l0 -360 45 0 45 0 0 378 1 377 147 -377 147 -378
182 0 183 0 -15 38 c-8 20 -93 244 -189 496 l-174 460 -336 0 -336 1 0 -37z"/>
<path d="M3580 3720 l-245 -5 -177 -475 c-98 -261 -180 -483 -184 -492 -4 -15
1 -18 38 -18 l44 0 128 348 c71 191 135 358 142 372 11 21 13 -35 14 -347 l0
-373 175 0 175 0 0 360 c0 414 4 447 60 501 31 30 51 39 103 48 35 6 80 11
100 11 36 0 37 1 37 40 l0 40 -82 -2 c-46 -1 -193 -5 -328 -8z"/>
<path d="M2052 2582 c2 -4 12 -29 23 -55 11 -26 24 -47 28 -47 5 0 7 3 5 8 -1
4 -11 28 -22 55 -10 26 -23 47 -28 47 -5 0 -8 -4 -6 -8z"/>
<path d="M2149 2532 c-2 -38 0 -62 6 -62 6 0 9 20 7 48 -5 77 -8 81 -13 14z"/>
<path d="M2300 2585 c0 -24 37 -115 46 -115 8 0 3 20 -11 55 -22 54 -35 77
-35 60z"/>
<path d="M2440 2530 c0 -33 4 -60 10 -60 6 0 10 27 10 60 0 33 -4 60 -10 60
-6 0 -10 -27 -10 -60z"/>
<path d="M2600 2530 c0 -33 4 -60 10 -60 6 0 10 27 10 60 0 33 -4 60 -10 60
-6 0 -10 -27 -10 -60z"/>
<path d="M2720 2530 c0 -33 4 -60 10 -60 6 0 10 27 10 60 0 33 -4 60 -10 60
-6 0 -10 -27 -10 -60z"/>
<path d="M2915 2570 c4 -14 13 -39 20 -57 7 -17 11 -34 7 -37 -3 -3 2 -6 10
-6 14 0 14 7 -4 53 -21 56 -46 91 -33 47z"/>
<path d="M1325 2278 c-2 -7 -6 -229 -7 -493 -3 -466 -4 -481 -24 -526 -12 -25
-37 -58 -56 -72 -33 -26 -137 -57 -190 -57 -26 0 -28 -3 -28 -37 l0 -38 365 0
365 0 0 38 c0 36 -1 37 -34 37 -59 0 -177 29 -210 52 -90 61 -89 57 -95 618
l-6 485 -38 3 c-24 2 -39 -1 -42 -10z"/>
<path d="M1884 2273 c3 -10 113 -294 244 -631 l237 -613 30 3 29 3 233 625
c128 344 233 626 233 628 0 1 -20 2 -44 2 l-43 0 -138 -370 c-76 -204 -142
-367 -146 -363 -4 4 -67 166 -140 358 -73 193 -137 356 -142 363 -7 9 -56 12
-184 12 -162 0 -175 -1 -169 -17z"/>
<path d="M3337 1798 c-4 -537 -5 -548 -61 -604 -36 -36 -81 -51 -178 -60 l-68
-7 0 -36 0 -36 480 0 480 0 0 36 0 36 -67 7 c-131 13 -175 35 -209 103 -18 35
-19 75 -24 543 l-5 505 -172 3 -172 2 -4 -492z"/>
</g>
</svg>
